# xmcd
# 
# Track frame offsets:
#     180
#     16723
#     32951
#     50670
#     60388
#     72700
#     85623
#     97824
#     110180
#     123255
#     135499
#     148218
# 
# Disc length: 2163 seconds
# 
# Revision: 5
# Processed by: cddbd v1.4PL0 Copyright (c) Steve Scherf et al.
# Submitted via: BonkEnc v1.0beta1
# 
DISCID=a608710c
DTITLE=Merle Haggard - 12 #1 hits
DYEAR=1900
DGENRE=
TTITLE0=Daddy Frank (the Guitar Man)
TTITLE1=Hungry Eyes
TTITLE2=I Think I'll Just Stay Here and Drink
TTITLE3=Mama Tried
TTITLE4=Okie from Muskogee
TTITLE5=the Fightin' Side of Me
TTITLE6=Workin' Man Blues
TTITLE7=If we Make it Through December
TTITLE8=Kentucky Gambler
TTITLE9=Everybody's Had the Blues
TTITLE10=Sing Me Back Home
TTITLE11=Always Wanting Your
EXTD=
EXTT0=
EXTT1=
EXTT2=
EXTT3=
EXTT4=
EXTT5=
EXTT6=
EXTT7=
EXTT8=
EXTT9=
EXTT10=
EXTT11=
PLAYORDER=
